<svg width="24" height="24" xmlns="http://www.w3.org/2000/svg">

 <g>
  <title>background</title>
  <rect fill="none" id="canvas_background" height="402" width="582" y="-1" x="-1"/>
 </g>
 <g>
  <title>Layer 1</title>
  <path fill="#ffffff" id="exit" d="m14.8,12l3.6,-3.6c0.8,-0.8 0.8,-2 0,-2.8c-0.8,-0.8 -2,-0.8 -2.8,0l-3.6,3.6l-3.6,-3.6c-0.8,-0.8 -2,-0.8 -2.8,0c-0.8,0.8 -0.8,2 0,2.8l3.6,3.6l-3.6,3.6c-0.8,0.8 -0.8,2 0,2.8c0.4,0.4 0.9,0.6 1.4,0.6s1,-0.2 1.4,-0.6l3.6,-3.6l3.6,3.6c0.4,0.4 0.9,0.6 1.4,0.6s1,-0.2 1.4,-0.6c0.8,-0.8 0.8,-2 0,-2.8l-3.6,-3.6z"/>
 </g>
</svg>