<svg width="1792" height="1792" xmlns="http://www.w3.org/2000/svg">

 <g>
  <title>background</title>
  <rect fill="none" id="canvas_background" height="402" width="582" y="-1" x="-1"/>
 </g>
 <g>
  <title>Layer 1</title>
  <path stroke="null" fill="#4d4d4d" id="svg_1" d="m1708.481186,1020.498784q0,26.86503 -26.86503,57.196515l-291.182259,343.17909q-37.264396,44.197307 -104.426971,74.962099t-124.35909,30.764792l-942.875885,0q-29.464871,0 -52.430139,-11.26598t-22.965267,-37.264396q0,-26.86503 26.86503,-57.196515l291.182259,-343.17909q37.264396,-44.197307 104.426971,-74.962099t124.35909,-30.764792l942.875885,0q29.464871,0 52.430139,11.26598t22.965267,37.264396zm-297.248556,-298.11517l0,138.658218l-721.022736,0q-81.461703,0 -170.722931,41.164159t-142.124674,103.560357l-292.048872,343.17909l-4.333069,5.199683q0,-3.466455 -0.433307,-10.832673t-0.433307,-10.832673l0,-831.94931q0,-79.728476 57.196515,-136.924991t136.924991,-57.196515l277.316437,0q79.728476,0 136.924991,57.196515t57.196515,136.924991l0,27.731644l471.437943,0q79.728476,0 136.924991,57.196515t57.196515,136.924991z"/>
 </g>
</svg>