<svg width="128" height="128" xmlns="http://www.w3.org/2000/svg">
 <title/>

 <g>
  <title>background</title>
  <rect fill="none" id="canvas_background" height="402" width="582" y="-1" x="-1"/>
 </g>
 <g>
  <title>Layer 1</title>
  <path fill="#ffffff" id="svg_1" d="m64,39a25,25 0 1 0 25,25a25,25 0 0 0 -25,-25zm0,44a19,19 0 1 1 19,-19a19,19 0 0 1 -19,19z"/>
  <path fill="#ffffff" id="svg_2" d="m121,48l-8.93,0a1,1 0 0 1 -0.94,-0.68a49.9,49.9 0 0 0 -2,-4.85a1,1 0 0 1 0.18,-1.15l6.31,-6.32a7,7 0 0 0 0,-9.9l-12.73,-12.72a7,7 0 0 0 -9.9,0l-6.31,6.31a1,1 0 0 1 -1.15,0.18a49.76,49.76 0 0 0 -4.85,-2a1,1 0 0 1 -0.68,-0.94l0,-8.93a7,7 0 0 0 -7,-7l-18,0a7,7 0 0 0 -7,7l0,8.93a1,1 0 0 1 -0.68,0.94a49.9,49.9 0 0 0 -4.85,2a1,1 0 0 1 -1.15,-0.18l-6.32,-6.31a7,7 0 0 0 -9.9,0l-12.72,12.73a7,7 0 0 0 0,9.9l6.31,6.31a1,1 0 0 1 0.18,1.15a49.76,49.76 0 0 0 -2,4.85a1,1 0 0 1 -0.94,0.68l-8.93,0a7,7 0 0 0 -7,7l0,18a7,7 0 0 0 7,7l8.93,0a1,1 0 0 1 0.94,0.68a49.9,49.9 0 0 0 2,4.85a1,1 0 0 1 -0.18,1.15l-6.31,6.32a7,7 0 0 0 0,9.9l12.73,12.73a7,7 0 0 0 9.9,0l6.31,-6.31a1,1 0 0 1 1.15,-0.18a49.76,49.76 0 0 0 4.85,2a1,1 0 0 1 0.68,0.94l0,8.92a7,7 0 0 0 7,7l18,0a7,7 0 0 0 7,-7l0,-8.93a1,1 0 0 1 0.68,-0.94a49.9,49.9 0 0 0 4.85,-2a1,1 0 0 1 1.15,0.18l6.32,6.31a7,7 0 0 0 9.9,0l12.73,-12.73a7,7 0 0 0 0,-9.9l-6.31,-6.31a1,1 0 0 1 -0.18,-1.15a49.76,49.76 0 0 0 2,-4.85a1,1 0 0 1 0.94,-0.68l8.92,0a7,7 0 0 0 7,-7l0,-18a7,7 0 0 0 -7,-7zm1,25a1,1 0 0 1 -1,1l-8.93,0a7,7 0 0 0 -6.6,4.69a43.9,43.9 0 0 1 -1.76,4.26a7,7 0 0 0 1.35,8l6.31,6.31a1,1 0 0 1 0,1.41l-12.72,12.71a1,1 0 0 1 -1.41,0l-6.31,-6.31a7,7 0 0 0 -8,-1.35a43.88,43.88 0 0 1 -4.27,1.76a7,7 0 0 0 -4.68,6.6l0,8.92a1,1 0 0 1 -1,1l-17.98,0a1,1 0 0 1 -1,-1l0,-8.93a7,7 0 0 0 -4.69,-6.6a43.9,43.9 0 0 1 -4.26,-1.76a7,7 0 0 0 -8,1.35l-6.31,6.31a1,1 0 0 1 -1.41,0l-12.71,-12.72a1,1 0 0 1 0,-1.41l6.31,-6.31a7,7 0 0 0 1.35,-8a43.88,43.88 0 0 1 -1.76,-4.27a7,7 0 0 0 -6.59,-4.66l-8.93,0a1,1 0 0 1 -1,-1l0,-18a1,1 0 0 1 1,-1l8.93,0a7,7 0 0 0 6.6,-4.69a43.9,43.9 0 0 1 1.76,-4.26a7,7 0 0 0 -1.35,-8l-6.31,-6.31a1,1 0 0 1 0,-1.41l12.72,-12.71a1,1 0 0 1 1.41,0l6.31,6.31a7,7 0 0 0 8,1.35a43.88,43.88 0 0 1 4.27,-1.76a7,7 0 0 0 4.66,-6.59l0,-8.93a1,1 0 0 1 1,-1l18,0a1,1 0 0 1 1,1l0,8.93a7,7 0 0 0 4.69,6.6a43.9,43.9 0 0 1 4.26,1.76a7,7 0 0 0 8,-1.35l6.31,-6.31a1,1 0 0 1 1.41,0l12.73,12.73a1,1 0 0 1 0,1.41l-6.31,6.31a7,7 0 0 0 -1.35,8a43.88,43.88 0 0 1 1.76,4.27a7,7 0 0 0 6.6,4.68l8.9,0a1,1 0 0 1 1,1l0,17.97z"/>
 </g>
</svg>