<svg width="48" height="48" xmlns="http://www.w3.org/2000/svg">

 <g>
  <title>background</title>
  <rect fill="none" id="canvas_background" height="402" width="582" y="-1" x="-1"/>
 </g>
 <g>
  <title>Layer 1</title>
  <path id="svg_1" fill="none" d="m0,0l48,0l0,48l-48,0l0,-48z"/>
  <path fill="#4d4d4d" id="svg_2" d="m34,6l-24,0c-2.21,0 -4,1.79 -4,4l0,28c0,2.21 1.79,4 4,4l28,0c2.21,0 4,-1.79 4,-4l0,-24l-8,-8zm-10,32c-3.31,0 -6,-2.69 -6,-6s2.69,-6 6,-6s6,2.69 6,6s-2.69,6 -6,6zm6,-20l-20,0l0,-8l20,0l0,8z"/>
 </g>
</svg>